<?xml version="1.0" encoding="UTF-8"?>
<svg version="1.1" xmlns="http://www.w3.org/2000/svg" width="256" height="256">
<path d="M0 0 C0.65802612 0.00215515 1.31605225 0.0043103 1.99401855 0.00653076 C17.45843991 0.0876559 30.70868833 2.83981867 45.2265625 8.0078125 C48.51721046 9.15204261 51.72260827 9.86435943 55.1875 10.3125 C55.1875 11.3025 55.1875 12.2925 55.1875 13.3125 C55.868125 13.580625 56.54875 13.84875 57.25 14.125 C60.58460809 15.47303306 63.88493237 16.88786298 67.1875 18.3125 C67.1875 18.9725 67.1875 19.6325 67.1875 20.3125 C68.8375 20.6425 70.4875 20.9725 72.1875 21.3125 C72.1875 21.9725 72.1875 22.6325 72.1875 23.3125 C72.744375 23.374375 73.30125 23.43625 73.875 23.5 C77.14515706 24.6489741 78.81796369 26.82448688 81.1875 29.3125 C82.3321875 30.1478125 82.3321875 30.1478125 83.5 31 C84.056875 31.433125 84.61375 31.86625 85.1875 32.3125 C85.1875 32.9725 85.1875 33.6325 85.1875 34.3125 C86.1775 34.6425 87.1675 34.9725 88.1875 35.3125 C88.1875 35.9725 88.1875 36.6325 88.1875 37.3125 C88.765 37.539375 89.3425 37.76625 89.9375 38 C92.75663681 39.64449647 94.20004869 41.7480467 96.1875 44.3125 C97.1775 44.9725 98.1675 45.6325 99.1875 46.3125 C100.3984375 48.23046875 100.3984375 48.23046875 101.5625 50.5 C103.04095162 53.37141454 104.63794143 55.95363437 106.5703125 58.53125 C109.54355235 62.63560171 111.63058299 67.00652003 113.6875 71.625 C114.07623291 72.49584229 114.46496582 73.36668457 114.86547852 74.26391602 C122.11435463 90.97824172 125.5914298 108.27101866 125.5 126.5 C125.49262817 128.26210815 125.49262817 128.26210815 125.48510742 130.05981445 C125.14280051 155.69421336 117.08137203 177.39611701 104.1875 199.3125 C103.5275 199.3125 102.8675 199.3125 102.1875 199.3125 C102.1875 200.6325 102.1875 201.9525 102.1875 203.3125 C100.125 205.625 100.125 205.625 97.1875 208.3125 C96.05714295 209.43211732 94.93243251 210.55745523 93.8125 211.6875 C86.5625 218.9375 86.5625 218.9375 84.82421875 220.671875 C83.77987254 221.71871368 82.74028428 222.77033561 81.70703125 223.828125 C78.39383803 227.20933099 78.39383803 227.20933099 76.1875 228.3125 C75.8575 229.3025 75.5275 230.2925 75.1875 231.3125 C73.8675 231.3125 72.5475 231.3125 71.1875 231.3125 C71.1875 231.9725 71.1875 232.6325 71.1875 233.3125 C68.9816576 234.44261652 66.77304973 235.56665788 64.5625 236.6875 C63.94503906 237.00460938 63.32757813 237.32171875 62.69140625 237.6484375 C58.93100833 239.54842803 55.23232184 241.08038504 51.1875 242.3125 C51.1875 242.9725 51.1875 243.6325 51.1875 244.3125 C47.62985539 245.45324418 44.06563123 246.57199526 40.5 247.6875 C39.51193359 248.00460938 38.52386719 248.32171875 37.50585938 248.6484375 C25.24540884 252.45750951 13.49363118 253.64398122 0.6875 253.5625 C-0.52808594 253.57023438 -1.74367188 253.57796875 -2.99609375 253.5859375 C-21.50228631 253.54643656 -38.17938174 249.71143703 -54.44921875 241.01953125 C-57.07974329 239.6844102 -59.00436472 238.92959261 -61.8125 238.3125 C-61.8125 237.6525 -61.8125 236.9925 -61.8125 236.3125 C-64.46478812 235.23724806 -67.09618454 234.21793849 -69.8125 233.3125 C-69.8125 232.6525 -69.8125 231.9925 -69.8125 231.3125 C-70.8025 231.3125 -71.7925 231.3125 -72.8125 231.3125 C-72.8125 230.6525 -72.8125 229.9925 -72.8125 229.3125 C-73.8025 229.3125 -74.7925 229.3125 -75.8125 229.3125 C-75.8125 228.6525 -75.8125 227.9925 -75.8125 227.3125 C-76.4725 227.3125 -77.1325 227.3125 -77.8125 227.3125 C-78.1425 226.6525 -78.4725 225.9925 -78.8125 225.3125 C-79.8025 224.9825 -80.7925 224.6525 -81.8125 224.3125 C-84.5 221.875 -84.5 221.875 -86.8125 219.3125 C-86.8125 218.6525 -86.8125 217.9925 -86.8125 217.3125 C-88.1325 216.9825 -89.4525 216.6525 -90.8125 216.3125 C-90.8125 215.3225 -90.8125 214.3325 -90.8125 213.3125 C-91.4725 213.3125 -92.1325 213.3125 -92.8125 213.3125 C-94.47916667 211.3125 -96.14583333 209.3125 -97.8125 207.3125 C-98.4725 207.3125 -99.1325 207.3125 -99.8125 207.3125 C-100.4725 205.0025 -101.1325 202.6925 -101.8125 200.3125 C-102.4725 200.3125 -103.1325 200.3125 -103.8125 200.3125 C-105.85419485 197.40701118 -106.8125 195.91107954 -106.8125 192.3125 C-107.8025 191.9825 -108.7925 191.6525 -109.8125 191.3125 C-110.54296875 189.46484375 -110.54296875 189.46484375 -111 187.25 C-111.15855469 186.51652344 -111.31710938 185.78304687 -111.48046875 185.02734375 C-111.59003906 184.46144531 -111.69960937 183.89554688 -111.8125 183.3125 C-112.4725 183.3125 -113.1325 183.3125 -113.8125 183.3125 C-114.73715116 180.79436668 -115.65210232 178.27328973 -116.5625 175.75 C-116.81515625 175.06486328 -117.0678125 174.37972656 -117.328125 173.67382812 C-118.20338901 171.23402971 -119.01058549 168.77739216 -119.8125 166.3125 C-120.34508423 164.78568604 -120.34508423 164.78568604 -120.88842773 163.22802734 C-124.30260423 152.31762296 -124.45714822 141.66100947 -124.38891602 130.28955078 C-124.37508104 127.08129319 -124.40919781 123.8759806 -124.44726562 120.66796875 C-124.53498469 97.0682442 -118.30049851 77.36622023 -105.8125 57.3125 C-105.39613281 56.62671875 -104.97976562 55.9409375 -104.55078125 55.234375 C-103.5 53.5625 -103.5 53.5625 -101.8125 51.3125 C-101.1525 51.3125 -100.4925 51.3125 -99.8125 51.3125 C-99.8125 50.3225 -99.8125 49.3325 -99.8125 48.3125 C-98.18910195 46.60365995 -96.51930947 44.93803283 -94.8125 43.3125 C-92.62759993 40.63607511 -92.62759993 40.63607511 -92.8125 38.3125 C-91.14970673 37.3060725 -89.48266516 36.30664593 -87.8125 35.3125 C-87.1525 34.3225 -86.4925 33.3325 -85.8125 32.3125 C-84.8225 32.3125 -83.8325 32.3125 -82.8125 32.3125 C-82.7196875 31.384375 -82.7196875 31.384375 -82.625 30.4375 C-81.8125 28.3125 -81.8125 28.3125 -79.4375 27.25 C-78.138125 26.7859375 -78.138125 26.7859375 -76.8125 26.3125 C-75.79053008 25.33496356 -74.79270375 24.3319119 -73.8125 23.3125 C-72.760625 22.631875 -71.70875 21.95125 -70.625 21.25 C-69.696875 20.610625 -68.76875 19.97125 -67.8125 19.3125 C-67.8125 18.6525 -67.8125 17.9925 -67.8125 17.3125 C-65.8325 16.6525 -63.8525 15.9925 -61.8125 15.3125 C-61.8125 14.9825 -61.8125 14.6525 -61.8125 14.3125 C-60.61625 13.94125 -59.42 13.57 -58.1875 13.1875 C-53.98491616 11.79985439 -49.98351113 10.10379567 -45.9375 8.3125 C-31.07602842 1.87730759 -16.12817666 -0.07224036 0 0 Z " fill="#050505" transform="translate(126.8125,0.6875)"/>
<path d="M0 0 C0.65802612 0.00215515 1.31605225 0.0043103 1.99401855 0.00653076 C17.45843991 0.0876559 30.70868833 2.83981867 45.2265625 8.0078125 C48.51721046 9.15204261 51.72260827 9.86435943 55.1875 10.3125 C55.1875 11.3025 55.1875 12.2925 55.1875 13.3125 C55.868125 13.580625 56.54875 13.84875 57.25 14.125 C60.58460809 15.47303306 63.88493237 16.88786298 67.1875 18.3125 C67.1875 18.9725 67.1875 19.6325 67.1875 20.3125 C68.8375 20.6425 70.4875 20.9725 72.1875 21.3125 C72.1875 21.9725 72.1875 22.6325 72.1875 23.3125 C72.744375 23.374375 73.30125 23.43625 73.875 23.5 C77.14515706 24.6489741 78.81796369 26.82448688 81.1875 29.3125 C82.3321875 30.1478125 82.3321875 30.1478125 83.5 31 C84.056875 31.433125 84.61375 31.86625 85.1875 32.3125 C85.1875 32.9725 85.1875 33.6325 85.1875 34.3125 C86.1775 34.6425 87.1675 34.9725 88.1875 35.3125 C88.1875 35.9725 88.1875 36.6325 88.1875 37.3125 C88.765 37.539375 89.3425 37.76625 89.9375 38 C92.75663681 39.64449647 94.20004869 41.7480467 96.1875 44.3125 C97.1775 44.9725 98.1675 45.6325 99.1875 46.3125 C100.3984375 48.23046875 100.3984375 48.23046875 101.5625 50.5 C103.04095162 53.37141454 104.63794143 55.95363437 106.5703125 58.53125 C109.54355235 62.63560171 111.63058299 67.00652003 113.6875 71.625 C114.07623291 72.49584229 114.46496582 73.36668457 114.86547852 74.26391602 C122.11435463 90.97824172 125.5914298 108.27101866 125.5 126.5 C125.49262817 128.26210815 125.49262817 128.26210815 125.48510742 130.05981445 C125.14280051 155.69421336 117.08137203 177.39611701 104.1875 199.3125 C103.5275 199.3125 102.8675 199.3125 102.1875 199.3125 C102.1875 200.6325 102.1875 201.9525 102.1875 203.3125 C100.125 205.625 100.125 205.625 97.1875 208.3125 C96.05714295 209.43211732 94.93243251 210.55745523 93.8125 211.6875 C86.5625 218.9375 86.5625 218.9375 84.82421875 220.671875 C83.77987254 221.71871368 82.74028428 222.77033561 81.70703125 223.828125 C78.39383803 227.20933099 78.39383803 227.20933099 76.1875 228.3125 C75.8575 229.3025 75.5275 230.2925 75.1875 231.3125 C73.8675 231.3125 72.5475 231.3125 71.1875 231.3125 C71.1875 231.9725 71.1875 232.6325 71.1875 233.3125 C68.9816576 234.44261652 66.77304973 235.56665788 64.5625 236.6875 C63.94503906 237.00460938 63.32757813 237.32171875 62.69140625 237.6484375 C58.93100833 239.54842803 55.23232184 241.08038504 51.1875 242.3125 C51.1875 242.9725 51.1875 243.6325 51.1875 244.3125 C47.62985539 245.45324418 44.06563123 246.57199526 40.5 247.6875 C39.51193359 248.00460938 38.52386719 248.32171875 37.50585938 248.6484375 C25.24540884 252.45750951 13.49363118 253.64398122 0.6875 253.5625 C-0.52808594 253.57023438 -1.74367188 253.57796875 -2.99609375 253.5859375 C-21.50228631 253.54643656 -38.17938174 249.71143703 -54.44921875 241.01953125 C-57.07974329 239.6844102 -59.00436472 238.92959261 -61.8125 238.3125 C-61.8125 237.6525 -61.8125 236.9925 -61.8125 236.3125 C-64.46478812 235.23724806 -67.09618454 234.21793849 -69.8125 233.3125 C-69.8125 232.6525 -69.8125 231.9925 -69.8125 231.3125 C-70.8025 231.3125 -71.7925 231.3125 -72.8125 231.3125 C-72.8125 230.6525 -72.8125 229.9925 -72.8125 229.3125 C-73.8025 229.3125 -74.7925 229.3125 -75.8125 229.3125 C-75.8125 228.6525 -75.8125 227.9925 -75.8125 227.3125 C-76.4725 227.3125 -77.1325 227.3125 -77.8125 227.3125 C-78.1425 226.6525 -78.4725 225.9925 -78.8125 225.3125 C-79.8025 224.9825 -80.7925 224.6525 -81.8125 224.3125 C-84.5 221.875 -84.5 221.875 -86.8125 219.3125 C-86.8125 218.6525 -86.8125 217.9925 -86.8125 217.3125 C-88.1325 216.9825 -89.4525 216.6525 -90.8125 216.3125 C-90.8125 215.3225 -90.8125 214.3325 -90.8125 213.3125 C-91.4725 213.3125 -92.1325 213.3125 -92.8125 213.3125 C-94.47916667 211.3125 -96.14583333 209.3125 -97.8125 207.3125 C-98.4725 207.3125 -99.1325 207.3125 -99.8125 207.3125 C-100.4725 205.0025 -101.1325 202.6925 -101.8125 200.3125 C-102.4725 200.3125 -103.1325 200.3125 -103.8125 200.3125 C-105.85419485 197.40701118 -106.8125 195.91107954 -106.8125 192.3125 C-107.8025 191.9825 -108.7925 191.6525 -109.8125 191.3125 C-110.54296875 189.46484375 -110.54296875 189.46484375 -111 187.25 C-111.15855469 186.51652344 -111.31710938 185.78304687 -111.48046875 185.02734375 C-111.59003906 184.46144531 -111.69960937 183.89554688 -111.8125 183.3125 C-112.4725 183.3125 -113.1325 183.3125 -113.8125 183.3125 C-114.73715116 180.79436668 -115.65210232 178.27328973 -116.5625 175.75 C-116.81515625 175.06486328 -117.0678125 174.37972656 -117.328125 173.67382812 C-118.20338901 171.23402971 -119.01058549 168.77739216 -119.8125 166.3125 C-120.34508423 164.78568604 -120.34508423 164.78568604 -120.88842773 163.22802734 C-124.30260423 152.31762296 -124.45714822 141.66100947 -124.38891602 130.28955078 C-124.37508104 127.08129319 -124.40919781 123.8759806 -124.44726562 120.66796875 C-124.53498469 97.0682442 -118.30049851 77.36622023 -105.8125 57.3125 C-105.39613281 56.62671875 -104.97976562 55.9409375 -104.55078125 55.234375 C-103.5 53.5625 -103.5 53.5625 -101.8125 51.3125 C-101.1525 51.3125 -100.4925 51.3125 -99.8125 51.3125 C-99.8125 50.3225 -99.8125 49.3325 -99.8125 48.3125 C-98.18910195 46.60365995 -96.51930947 44.93803283 -94.8125 43.3125 C-92.62759993 40.63607511 -92.62759993 40.63607511 -92.8125 38.3125 C-91.14970673 37.3060725 -89.48266516 36.30664593 -87.8125 35.3125 C-87.1525 34.3225 -86.4925 33.3325 -85.8125 32.3125 C-84.8225 32.3125 -83.8325 32.3125 -82.8125 32.3125 C-82.7196875 31.384375 -82.7196875 31.384375 -82.625 30.4375 C-81.8125 28.3125 -81.8125 28.3125 -79.4375 27.25 C-78.138125 26.7859375 -78.138125 26.7859375 -76.8125 26.3125 C-75.79053008 25.33496356 -74.79270375 24.3319119 -73.8125 23.3125 C-72.760625 22.631875 -71.70875 21.95125 -70.625 21.25 C-69.696875 20.610625 -68.76875 19.97125 -67.8125 19.3125 C-67.8125 18.6525 -67.8125 17.9925 -67.8125 17.3125 C-65.8325 16.6525 -63.8525 15.9925 -61.8125 15.3125 C-61.8125 14.9825 -61.8125 14.6525 -61.8125 14.3125 C-60.61625 13.94125 -59.42 13.57 -58.1875 13.1875 C-53.98491616 11.79985439 -49.98351113 10.10379567 -45.9375 8.3125 C-31.07602842 1.87730759 -16.12817666 -0.07224036 0 0 Z M-87.8125 50.3125 C-100.02346773 64.56010806 -108.81588457 81.95847804 -112.8125 100.3125 C-112.98475098 100.99586426 -113.15700195 101.67922852 -113.33447266 102.38330078 C-115.14055365 110.13996031 -115.21031921 117.89077685 -115.1875 125.8125 C-115.18695618 126.52148438 -115.18641235 127.23046875 -115.18585205 127.9609375 C-115.1463332 139.17038155 -114.32947558 149.61334825 -110.8125 160.3125 C-110.60351074 160.98055664 -110.39452148 161.64861328 -110.17919922 162.33691406 C-106.76313469 173.05849485 -101.87074252 186.25425748 -93.8125 194.3125 C-91.5302874 194.65395636 -89.23518998 194.91120676 -86.9375 195.125 C-78.4806244 196.05693216 -70.94229931 198.55930046 -63.8125 203.3125 C-64.38209153 206.93863199 -65.73624534 208.56767741 -68.375 211.0625 C-69.01566406 211.67609375 -69.65632813 212.2896875 -70.31640625 212.921875 C-70.81011719 213.38078125 -71.30382812 213.8396875 -71.8125 214.3125 C-71.4825 214.9725 -71.1525 215.6325 -70.8125 216.3125 C-70.07 215.796875 -69.3275 215.28125 -68.5625 214.75 C-65.8125 213.3125 -65.8125 213.3125 -63.6875 213.5 C-61.8125 214.3125 -61.8125 214.3125 -58.8125 216.3125 C-59.1425 214.3325 -59.4725 212.3525 -59.8125 210.3125 C-57.21288991 212.60845193 -56.01120665 214.72065713 -54.75 217.9375 C-54.39550781 218.82179687 -54.04101562 219.70609375 -53.67578125 220.6171875 C-52.84712485 223.20439525 -52.63360742 225.37172381 -52.4375 228.0625 C-52.14372044 230.32847016 -52.14372044 230.32847016 -50.8125 232.3125 C-45.94331605 235.38450111 -40.20718346 238.53065364 -34.3203125 238.15234375 C-30.96580856 237.02895068 -27.73042335 235.68389543 -24.5 234.25 C-23.85482422 233.96833984 -23.20964844 233.68667969 -22.54492188 233.39648438 C-20.96551642 232.7062257 -19.38873507 232.00996802 -17.8125 231.3125 C-21.44445496 230.10184835 -22.87781629 230.68465185 -26.5 231.75 C-27.49386719 232.03746094 -28.48773438 232.32492188 -29.51171875 232.62109375 C-30.27097656 232.84925781 -31.03023438 233.07742187 -31.8125 233.3125 C-30.53052734 232.80589844 -30.53052734 232.80589844 -29.22265625 232.2890625 C-28.11792969 231.84304687 -27.01320313 231.39703125 -25.875 230.9375 C-24.22177734 230.27621094 -24.22177734 230.27621094 -22.53515625 229.6015625 C-19.70019814 228.60208568 -19.70019814 228.60208568 -18.8125 226.3125 C-23.7625 227.3025 -28.7125 228.2925 -33.8125 229.3125 C-33.874375 227.91 -33.93625 226.5075 -34 225.0625 C-35.31305285 212.1690505 -42.46828813 200.42478981 -52.2578125 192.16796875 C-61.92814454 185.14440954 -71.3079479 182.20479015 -83.1015625 182.2734375 C-84.3592041 182.27907715 -85.6168457 182.2847168 -86.91259766 182.29052734 C-87.86956543 182.29777832 -88.8265332 182.3050293 -89.8125 182.3125 C-86.33154457 180.30771342 -82.84436207 178.31427852 -79.35107422 176.33105469 C-78.16409512 175.65509553 -76.97884961 174.97608256 -75.79541016 174.29394531 C-74.09217993 173.31290758 -72.3820976 172.34379662 -70.671875 171.375 C-69.13225098 170.49521484 -69.13225098 170.49521484 -67.56152344 169.59765625 C-64.8125 168.3125 -64.8125 168.3125 -60.8125 168.3125 C-59.171875 169.4140625 -59.171875 169.4140625 -57.5625 170.9375 C-55.06676166 173.23550319 -52.56772258 175.17683479 -49.75 177.0625 C-44.95852343 180.62846429 -42.55621004 185.09588766 -39.8125 190.3125 C-38.60543214 192.58400625 -37.39706337 194.85482161 -36.1875 197.125 C-35.63835937 198.18332031 -35.08921875 199.24164063 -34.5234375 200.33203125 C-27.34114349 212.84365301 -13.07819508 217.62846311 0.1875 221.3125 C8.01343332 223.11143343 16.01134024 223.29925542 23.1875 219.3125 C35.50863905 209.75670898 35.50863905 209.75670898 42.1875 196.3125 C42.40867559 193.8986824 42.59322242 191.48135403 42.75 189.0625 C42.83378906 187.79921875 42.91757813 186.5359375 43.00390625 185.234375 C43.06449219 184.27015625 43.12507812 183.3059375 43.1875 182.3125 C54.06277556 195.00554496 57.77749434 209.06622655 60.1875 225.3125 C64.09502357 224.45903661 66.42189617 223.31515559 69.1875 220.3125 C69.17702718 216.8207547 69.17702718 216.8207547 68.1875 213.3125 C68.001875 212.343125 67.81625 211.37375 67.625 210.375 C67.4084375 209.3540625 67.4084375 209.3540625 67.1875 208.3125 C69.1675 207.9825 71.1475 207.6525 73.1875 207.3125 C73.1875 206.9825 73.1875 206.6525 73.1875 206.3125 C71.970625 206.35375 70.75375 206.395 69.5 206.4375 C67.30078125 206.19921875 67.30078125 206.19921875 65.1875 205.3125 C62.95355595 202.1977134 61.53727307 198.88810077 60.1875 195.3125 C61.8890625 194.879375 61.8890625 194.879375 63.625 194.4375 C64.800625 194.06625 65.97625 193.695 67.1875 193.3125 C67.5175 192.6525 67.8475 191.9925 68.1875 191.3125 C67.54683594 191.36792969 66.90617188 191.42335937 66.24609375 191.48046875 C63.24762661 191.50281202 61.03052356 191.30444545 58.1875 190.3125 C55.91303875 187.75639814 54.37603115 185.18062324 52.7578125 182.171875 C51.15959517 179.26168822 49.32354017 176.84615804 47.1875 174.3125 C45.20258358 174.57926204 45.20258358 174.57926204 43.1875 175.3125 C42.8575 176.3025 42.5275 177.2925 42.1875 178.3125 C39.47412109 179.36914062 39.47412109 179.36914062 36.1875 180.3125 C35.27436035 180.65990234 34.3612207 181.00730469 33.42041016 181.36523438 C25.98867211 184.10981527 19.45556324 184.94985857 11.5625 184.8125 C10.42731934 184.79968994 9.29213867 184.78687988 8.12255859 184.77368164 C-1.6130704 184.54155295 -10.52742527 183.19630174 -19.8125 180.3125 C-20.64539551 180.0551709 -21.47829102 179.7978418 -22.33642578 179.53271484 C-36.21248763 175.14552507 -49.74146853 170.3533345 -59.8125 159.3125 C-59.8125 158.6525 -59.8125 157.9925 -59.8125 157.3125 C-59.214375 158.158125 -58.61625 159.00375 -58 159.875 C-50.19658539 169.08346156 -37.83813959 173.28442968 -26.8125 177.3125 C-25.66491211 177.75287598 -25.66491211 177.75287598 -24.49414062 178.20214844 C-13.00263553 182.51742317 -1.94420313 183.88970881 10.25 183.9375 C11.54566895 183.94837646 12.84133789 183.95925293 14.17626953 183.97045898 C23.69125606 183.82911095 33.77824674 182.96257554 40.9375 176.0625 C43.53294994 173.61020437 44.10439127 173.32658623 47.875 172.6875 C57.54905179 173.51082356 66.2867164 177.94110395 74.1875 183.3125 C75.21875 183.993125 76.25 184.67375 77.3125 185.375 C82.09449278 189.49740757 85.06114609 195.89295756 88.1875 201.3125 C103.84256152 186.53786374 114.04469407 160.56267667 115.38037109 139.23242188 C115.77493584 122.33070291 115.61571281 106.53264482 110.1875 90.3125 C109.95756348 89.61785645 109.72762695 88.92321289 109.49072266 88.20751953 C104.80278318 74.50865038 97.67486192 62.227484 88.1875 51.3125 C87.50042969 50.49265625 86.81335938 49.6728125 86.10546875 48.828125 C67.96422051 27.77773965 40.23666071 12.5017327 12.1875 10.3125 C-27.19414701 8.06313386 -61.2274071 20.65042876 -87.8125 50.3125 Z " fill="#EFEFEF" transform="translate(126.8125,0.6875)"/>
<path d="M0 0 C12.74395184 10.10372504 20.48528611 23.2606496 27.26220703 37.74804688 C27.59220703 38.40804687 27.92220703 39.06804687 28.26220703 39.74804688 C28.30243094 42.08103348 28.3054095 44.41511353 28.26220703 46.74804688 C26.26220703 43.74804687 26.26220703 43.74804687 25.28955078 41.91601562 C20.35445039 32.94792997 12.01471511 28.84921554 2.53564453 25.66210938 C-17.14098044 20.71674939 -40.01136588 25.83520643 -57.23779297 35.74804688 C-60.88392017 38.05490082 -63.88640368 40.47733563 -66.73779297 43.74804688 C-67.72585937 44.86566406 -67.72585937 44.86566406 -68.73388672 46.00585938 C-73.484331 52.50646734 -75.38357185 61.74264961 -75.73779297 69.74804688 C-75.80095703 70.79605469 -75.86412109 71.8440625 -75.92919922 72.92382812 C-76.34130979 85.08773687 -73.5076801 95.25151816 -65.73779297 104.74804688 C-54.62004765 116.13050042 -38.80426501 119.00457601 -23.55029297 119.18554688 C-10.64312081 119.12769077 3.8703026 118.19146922 14.26220703 109.74804688 C15.25220703 108.26304687 15.25220703 108.26304687 16.26220703 106.74804688 C15.64345703 107.32554687 15.02470703 107.90304688 14.38720703 108.49804688 C1.25709866 117.9517249 -17.88120169 117.68656237 -33.2734375 115.36572266 C-44.85506792 112.73985356 -58.96704345 105.70745371 -66.11083984 95.85424805 C-69.76245934 89.80503744 -70.50357874 84.93368987 -70.30029297 77.93554688 C-70.28369629 76.96794434 -70.26709961 76.0003418 -70.25 75.00341797 C-69.85744055 62.89102659 -66.69143995 53.34978864 -57.80810547 44.91601562 C-47.0721763 35.89075649 -32.71627098 30.48148554 -18.73779297 29.74804688 C-17.14451172 29.65136719 -17.14451172 29.65136719 -15.51904297 29.55273438 C-3.01415008 29.13774899 8.82963991 31.90107595 18.19580078 40.52929688 C26.37882754 49.10361181 26.7466618 58.22320021 26.63720703 69.68554688 C26.64880859 70.89662109 26.66041016 72.10769531 26.67236328 73.35546875 C26.64500211 81.77815015 25.3381026 88.64791497 22.17626953 96.41601562 C20.9415943 99.56602039 20.31799431 102.74944511 19.63720703 106.06054688 C19.37681641 107.31480469 19.11642578 108.5690625 18.84814453 109.86132812 C18.65478516 110.81394531 18.46142578 111.7665625 18.26220703 112.74804688 C17.60220703 112.41804688 16.94220703 112.08804688 16.26220703 111.74804688 C15.27220703 112.40804687 14.28220703 113.06804687 13.26220703 113.74804688 C-3.66674693 122.82676024 -24.42716811 124.75892892 -42.98461914 119.72314453 C-59.93744408 114.52050756 -74.24625972 103.92500557 -87.73779297 92.74804688 C-87.40779297 91.73742187 -87.07779297 90.72679687 -86.73779297 89.68554688 C-85.66777976 85.99324777 -85.58075142 82.5955648 -85.73779297 78.74804688 C-86.72779297 83.69804687 -86.72779297 83.69804687 -87.73779297 88.74804688 C-88.72779297 88.74804688 -89.71779297 88.74804688 -90.73779297 88.74804688 C-91.27638735 91.82572905 -91.2583441 93.94447766 -89.53076172 96.61132812 C-84.77644832 102.16730561 -79.24675188 106.95957554 -73.73779297 111.74804688 C-76.73779297 112.74804688 -76.73779297 112.74804688 -79.44482422 111.56054688 C-86.22247623 107.6047852 -92.12044727 103.98273827 -95.73779297 96.74804688 C-95.95217016 93.53238894 -95.97254794 91.28660241 -94.67529297 88.31054688 C-93.15979333 84.16818119 -93.91311795 80.59104529 -95.70263672 76.59179688 C-101.88435393 62.6884329 -100.04830278 44.72970554 -94.73779297 30.74804688 C-87.00813288 11.99540976 -75.68541236 -1.34665497 -56.73779297 -9.25195312 C-37.44531937 -16.24485487 -16.4095979 -11.8219188 0 0 Z " fill="#FAFAFA" transform="translate(161.73779296875,49.251953125)"/>
<path d="M0 0 C0.886875 0.680625 1.77375 1.36125 2.6875 2.0625 C3.90759766 2.93261719 3.90759766 2.93261719 5.15234375 3.8203125 C8.01074916 6.34839371 9.29489469 8.57214208 10.9375 12 C11.43765625 13.01964844 11.9378125 14.03929688 12.453125 15.08984375 C17.04037819 26.13699463 15.83551669 41.08926063 11.6875 52.0625 C11.31238281 53.1040625 10.93726563 54.145625 10.55078125 55.21875 C8.06564643 61.67853262 6.04414843 66.92361032 -0.45678711 70.11523438 C-7.91119189 73.13409485 -14.72375909 73.68484691 -22.7277832 73.58398438 C-24.74487962 73.5625544 -26.75840229 73.58387764 -28.77539062 73.609375 C-41.63296342 73.55877953 -51.73253034 70.31138798 -62.3125 63.0625 C-62.89902344 62.66160156 -63.48554687 62.26070313 -64.08984375 61.84765625 C-70.18171834 57.24387317 -73.99171767 50.50690948 -75.3125 43.0625 C-76.25529939 31.57485207 -75.26344708 20.29588331 -67.6875 11.125 C-51.77983392 -4.84104284 -19.98536314 -11.68955203 0 0 Z " fill="#050505" transform="translate(171.3125,86.9375)"/>
<path d="M0 0 C12.50489289 -0.41498538 24.34868287 2.34834157 33.71484375 10.9765625 C41.89787051 19.55087744 42.26570477 28.67046584 42.15625 40.1328125 C42.16785156 41.34388672 42.17945313 42.55496094 42.19140625 43.80273438 C42.16404508 52.22541578 40.85714556 59.09518059 37.6953125 66.86328125 C36.46063727 70.01328602 35.83703728 73.19671074 35.15625 76.5078125 C34.89585937 77.76207031 34.63546875 79.01632813 34.3671875 80.30859375 C34.17382812 81.26121094 33.98046875 82.21382813 33.78125 83.1953125 C33.12125 82.8653125 32.46125 82.5353125 31.78125 82.1953125 C30.79125 82.8553125 29.80125 83.5153125 28.78125 84.1953125 C11.85229604 93.27402586 -8.90812514 95.20619455 -27.46557617 90.17041016 C-44.41840112 84.96777319 -58.72721675 74.3722712 -72.21875 63.1953125 C-71.88875 62.1846875 -71.55875 61.1740625 -71.21875 60.1328125 C-70.14873679 56.44051339 -70.06170845 53.04283043 -70.21875 49.1953125 C-70.87875 52.4953125 -71.53875 55.7953125 -72.21875 59.1953125 C-73.20875 59.1953125 -74.19875 59.1953125 -75.21875 59.1953125 C-75.75734438 62.27299467 -75.73930113 64.39174328 -74.01171875 67.05859375 C-69.25740536 72.61457123 -63.72770892 77.40684117 -58.21875 82.1953125 C-61.21875 83.1953125 -61.21875 83.1953125 -63.92578125 82.0078125 C-70.70343326 78.05205082 -76.6014043 74.4300039 -80.21875 67.1953125 C-80.4331272 63.97965456 -80.45350498 61.73386803 -79.15625 58.7578125 C-77.22033573 53.46631348 -79.33595062 48.76297781 -81.28125 43.7578125 C-84.24228179 35.7966501 -83.78710274 30.23278366 -80.35546875 22.40625 C-78.97029984 19.71207267 -77.75777237 17.88799408 -75.21875 16.1953125 C-72.78125 15.6328125 -72.78125 15.6328125 -70.21875 16.1953125 C-65.62621545 20.14702827 -63.0665839 23.31477743 -62.59375 29.3828125 C-62.51898438 30.28386719 -62.44421875 31.18492188 -62.3671875 32.11328125 C-62.31820312 32.80035156 -62.26921875 33.48742187 -62.21875 34.1953125 C-61.55875 34.1953125 -60.89875 34.1953125 -60.21875 34.1953125 C-60.28835937 36.15210937 -60.28835937 36.15210937 -60.359375 38.1484375 C-60.7145276 52.30438634 -59.50820111 63.84153893 -50.21875 75.1953125 C-39.10100468 86.57776604 -23.28522204 89.45184163 -8.03125 89.6328125 C4.87592216 89.57495639 19.38934557 88.63873485 29.78125 80.1953125 C30.77125 78.7103125 30.77125 78.7103125 31.78125 77.1953125 C31.1625 77.7728125 30.54375 78.3503125 29.90625 78.9453125 C16.77614163 88.39899053 -2.36215872 88.133828 -17.75439453 85.81298828 C-29.33602495 83.18711919 -43.44800048 76.15471933 -50.59179688 66.30151367 C-54.24341637 60.25230307 -54.98453577 55.3809555 -54.78125 48.3828125 C-54.76465332 47.41520996 -54.74805664 46.44760742 -54.73095703 45.45068359 C-54.33839758 33.33829221 -51.17239698 23.79705427 -42.2890625 15.36328125 C-30.29591342 5.28112845 -15.33597343 0.93058091 0 0 Z M-44.21875 21.1953125 C-50.33396058 30.15035022 -51.15016625 40.64702352 -50.21875 51.1953125 C-48.00180036 61.19677849 -43.37208813 67.27663629 -34.96875 72.8828125 C-24.12823046 79.46402832 -14.84148564 81.43789149 -2.33154297 81.54541016 C-0.93716598 81.56184492 0.45713123 81.5889674 1.85107422 81.62744141 C12.04644471 81.90653391 22.01604971 81.30862406 30.00732422 74.22094727 C39.58956581 63.27904546 40.52588497 47.01927761 39.92919922 33.25097656 C39.29589906 24.45165752 35.40118141 16.24881554 28.7421875 10.40625 C7.66523238 -4.71255526 -27.57665333 2.46853706 -44.21875 21.1953125 Z " fill="#BCBCBC" transform="translate(146.21875,78.8046875)"/>
<path d="M0 0 C1.02480469 0.34611328 1.02480469 0.34611328 2.0703125 0.69921875 C5.69380223 1.87152425 9.33904377 2.95227074 13 4 C14.15822266 4.33668701 14.15822266 4.33668701 15.33984375 4.68017578 C26.64443913 7.87466156 37.48613863 9.48189248 49.25 9.5625 C50.36777832 9.57700195 51.48555664 9.59150391 52.63720703 9.60644531 C61.95963946 9.49171629 70.02782565 7.50736273 77 1 C75.03021033 13.64812315 70.63519449 20.45216288 61 29 C60.44570312 29.50273437 59.89140625 30.00546875 59.3203125 30.5234375 C53.58993692 34.70987769 45.67848403 33.65318506 39 33 C26.76098497 30.55219699 15.24425698 25.45044727 8 15 C1.66053748 4.98161245 1.66053748 4.98161245 0 0 Z " fill="#F2F2F2" transform="translate(90,182)"/>
<path d="M0 0 C4.69644337 1.03092659 7.00503855 4.72630783 9.5625 8.5625 C9.9765625 11.04296875 9.9765625 11.04296875 10.1875 13.75 C10.26226562 14.65105469 10.33703125 15.55210938 10.4140625 16.48046875 C10.48753906 17.51107422 10.48753906 17.51107422 10.5625 18.5625 C11.2225 18.5625 11.8825 18.5625 12.5625 18.5625 C12.49289063 20.51929688 12.49289063 20.51929688 12.421875 22.515625 C11.97413777 40.36188417 15.77184698 52.03792741 27.5625 65.5625 C21.33918522 64.07785301 16.84265299 60.44671631 11.8125 56.6875 C10.95011719 56.06230469 10.08773437 55.43710938 9.19921875 54.79296875 C7.96365234 53.87837891 7.96365234 53.87837891 6.703125 52.9453125 C5.95579102 52.39246582 5.20845703 51.83961914 4.43847656 51.27001953 C2.45104857 49.46105657 1.45941731 48.08803033 0.5625 45.5625 C1.19775576 43.88360979 1.86936092 42.21833225 2.5625 40.5625 C2.63896165 38.2304198 2.65393299 35.89404122 2.5625 33.5625 C1.9025 36.8625 1.2425 40.1625 0.5625 43.5625 C-0.4275 43.5625 -1.4175 43.5625 -2.4375 43.5625 C-2.97609438 46.64018217 -2.95805113 48.75893078 -1.23046875 51.42578125 C3.52384464 56.98175873 9.05354108 61.77402867 14.5625 66.5625 C11.5625 67.5625 11.5625 67.5625 8.85546875 66.375 C2.07781674 62.41923832 -3.8201543 58.7971914 -7.4375 51.5625 C-7.6518772 48.34684206 -7.67225498 46.10105553 -6.375 43.125 C-4.43908573 37.83350098 -6.55470062 33.13016531 -8.5 28.125 C-11.46103179 20.1638376 -11.00585274 14.59997116 -7.57421875 6.7734375 C-5.66572096 3.0613765 -4.13926985 0.95521612 0 0 Z " fill="#EDEDED" transform="translate(73.4375,94.4375)"/>
<path d="M0 0 C0.33 0 0.66 0 1 0 C0.97905273 0.57854736 0.95810547 1.15709473 0.93652344 1.75317383 C0.38320935 19.30661037 0.38320935 19.30661037 7.0625 35.25 C14.57898264 43.22761655 27.10774107 49.5104519 38.109375 50.19287109 C41.3688836 50.26500346 44.62706999 50.3220779 47.88720703 50.35009766 C49.28158402 50.36653242 50.67588123 50.3936549 52.06982422 50.43212891 C60.76176934 50.67006599 67.81017434 49.94255987 75.7421875 46.08056641 C78 45 78 45 80 45 C80.33 44.01 80.66 43.02 81 42 C83.0625 40.8125 83.0625 40.8125 85 40 C84.50787255 44.26510459 82.23647187 47.34268625 79 50 C63.70205005 57.91346235 42.98387359 59.16014749 26.5625 53.9375 C14.80471096 49.15878896 3.21663285 43.05401583 -2.96362305 31.59912109 C-4.78470454 27.03204605 -4.60512459 22.60125288 -4.4375 17.75 C-4.43169922 16.78320312 -4.42589844 15.81640625 -4.41992188 14.8203125 C-4.23771461 4.23771461 -4.23771461 4.23771461 0 0 Z " fill="#EDEDED" transform="translate(96,109)"/>
<path d="M0 0 C2.92301013 0.3340583 3.86172694 0.83942483 5.81640625 3.109375 C6.39261719 3.98078125 6.96882812 4.8521875 7.5625 5.75 C8.14128906 6.61109375 8.72007812 7.4721875 9.31640625 8.359375 C11 11 11 11 12.390625 13.77734375 C13.81227647 16.22281526 13.81227647 16.22281526 16.48046875 16.70703125 C17.37378906 16.74183594 18.26710937 16.77664062 19.1875 16.8125 C20.08855469 16.86019531 20.98960937 16.90789062 21.91796875 16.95703125 C22.60503906 16.97121094 23.29210937 16.98539063 24 17 C21.60490662 19.89932357 19.68754757 20.50168276 16 21 C17.34977307 24.57560077 18.76605595 27.8852134 21 31 C23.92330037 32.22659738 25.76064659 32.10980859 29 32 C28.34 32.66 27.68 33.32 27 34 C25.68 34 24.36 34 23 34 C23.33 35.051875 23.66 36.10375 24 37.1875 C25.58394161 43.22627737 25.58394161 43.22627737 25 46 C22.1875 48.8125 22.1875 48.8125 19 51 C18.01 51 17.02 51 16 51 C15.90501221 50.45698242 15.81002441 49.91396484 15.7121582 49.35449219 C13.22712658 35.41471836 10.66093667 21.01989195 1 10 C-0.99910494 8.79957456 -0.99910494 8.79957456 -3 8 C-3.66 7.67 -4.32 7.34 -5 7 C-4.67 6.01 -4.34 5.02 -4 4 C-3.34 4 -2.68 4 -2 4 C-1.34 2.68 -0.68 1.36 0 0 Z " fill="#121212" transform="translate(171,175)"/>
<path d="M0 0 C3.74754065 0.71381727 5.18046353 2.65905221 7.625 5.5 C9.90719901 8.92329851 9.92241163 10.34137668 9.9375 14.375 C9.95425781 15.40367188 9.97101563 16.43234375 9.98828125 17.4921875 C9.46243659 21.84595509 7.68403755 24.44096245 4.625 27.5 C1.61909759 27.83937608 -0.47721745 28.07381833 -3.375 27.5 C-6.68029156 24.36421057 -8.20991268 21.55089246 -8.578125 16.9765625 C-8.7342117 7.48128795 -8.7342117 7.48128795 -5.375 3.5 C-4.92125 2.901875 -4.4675 2.30375 -4 1.6875 C-2.375 0.5 -2.375 0.5 0 0 Z " fill="#101010" transform="translate(73.375,94.5)"/>
<path d="M0 0 C2.35279431 1.67503202 4.62621531 3.4068477 6.87109375 5.22509766 C7.72832031 5.91474609 8.58554688 6.60439453 9.46875 7.31494141 C11.35329078 8.90374457 13.10727464 10.50818521 14.80859375 12.28759766 C13.81859375 13.27759766 12.82859375 14.26759766 11.80859375 15.28759766 C11.10734375 14.79259766 10.40609375 14.29759766 9.68359375 13.78759766 C6.43739656 12.09392956 4.41519219 12.03597451 0.80859375 12.28759766 C0.47859375 13.93759766 0.14859375 15.58759766 -0.19140625 17.28759766 C1.12859375 18.27759766 2.44859375 19.26759766 3.80859375 20.28759766 C3.47859375 20.94759766 3.14859375 21.60759766 2.80859375 22.28759766 C1.67421875 21.66884766 0.53984375 21.05009766 -0.62890625 20.41259766 C-9.92874737 15.84368616 -19.01454411 16.04624915 -29.19140625 16.28759766 C-25.08925998 11.74947449 -19.46332047 9.05685176 -14.25390625 5.97509766 C-13.15626953 5.30414063 -12.05863281 4.63318359 -10.92773438 3.94189453 C-9.87134766 3.31734375 -8.81496094 2.69279297 -7.7265625 2.04931641 C-6.76113525 1.47141357 -5.79570801 0.89351074 -4.80102539 0.2980957 C-2.19140625 -0.71240234 -2.19140625 -0.71240234 0 0 Z " fill="#F1F1F1" transform="translate(65.19140625,167.71240234375)"/>
<path d="M0 0 C0.495 3.465 0.495 3.465 1 7 C-22.75028933 13.76702573 -22.75028933 13.76702573 -34 13 C-35 12 -35 12 -35.09765625 9.93359375 C-35.08605469 9.10988281 -35.07445312 8.28617188 -35.0625 7.4375 C-35.05347656 6.61121094 -35.04445312 5.78492188 -35.03515625 4.93359375 C-35.02355469 4.29550781 -35.01195312 3.65742188 -35 3 C-10.01734161 -0.58165209 -10.01734161 -0.58165209 0 0 Z " fill="#0C0C0C" transform="translate(165,231)"/>
<path d="M0 0 C0.226875 0.53625 0.45375 1.0725 0.6875 1.625 C7.70933256 14.33117321 22.05973133 19.27244549 35 24 C35.76505859 24.29358398 36.53011719 24.58716797 37.31835938 24.88964844 C48.80986447 29.20492317 59.86829687 30.57720881 72.0625 30.625 C73.35816895 30.63587646 74.65383789 30.64675293 75.98876953 30.65795898 C87.26821398 30.49039939 96.52032031 28.60996896 105 21 C106.485 21.495 106.485 21.495 108 22 C96.40816807 33.2698366 81.93404541 33.4492339 66.765625 33.2734375 C58.1151274 33.03060808 50.24240623 31.5599649 42 29 C40.75065674 28.61400635 40.75065674 28.61400635 39.47607422 28.22021484 C25.26120431 23.72590424 10.92849512 18.75957003 1 7 C-0.0437693 4.36158315 -0.12230176 2.87409138 0 0 Z " fill="#A7A7A7" transform="translate(65,153)"/>
<path d="M0 0 C0 0.33 0 0.66 0 1 C-1.25490234 1.03867188 -1.25490234 1.03867188 -2.53515625 1.078125 C-18.71031182 1.86628319 -35.22702916 5.78405212 -47.3828125 17.1328125 C-49.53510892 19.61783107 -50.92191191 22.19138297 -52.2109375 25.203125 C-53 27 -53 27 -55 30 C-55.99 30 -56.98 30 -58 30 C-55.95022511 20.9681794 -51.46700202 15.11455543 -43.890625 9.83203125 C-29.46262215 0.83405632 -16.71030241 -1.93326523 0 0 Z " fill="#D5D5D5" transform="translate(152,81)"/>
<path d="M0 0 C3.18245697 0.51329951 6.0987092 1.36172697 9.125 2.4375 C17.93415673 5.3643208 26.37553148 6.22417591 35.625 6.375 C36.50768555 6.40102295 37.39037109 6.4270459 38.29980469 6.45385742 C46.00144191 6.47471542 51.63565191 4.24289873 58 0 C56.23111459 4.50261742 53.13674688 6.87750633 48.91796875 9.09375 C32.86715535 14.07874158 14.29683326 8.25244764 0 1 C0 0.67 0 0.34 0 0 Z " fill="#050505" transform="translate(104,193)"/>
<path d="M0 0 C0.66 0.33 1.32 0.66 2 1 C2.16231316 2.43376626 2.27856089 3.87280186 2.375 5.3125 C3.74776144 13.26307668 10.29903282 17.84342226 16 23 C17.34210498 24.3245036 18.6794863 25.65396912 20 27 C12.68036156 25.97896348 5.61277536 21.3118766 0.875 15.6875 C-1.86046009 11.76667386 -2.28190384 9.79236532 -2 5 C-1 2.125 -1 2.125 0 0 Z " fill="#DEDEDE" transform="translate(68,135)"/>
<path d="M0 0 C4.06196093 0.38320386 6.10717589 1.8703483 9.3125 4.3125 C8.4375 9.1875 8.4375 9.1875 7.3125 10.3125 C3.04546158 10.72279216 0.97217285 10.76163896 -2.625 8.3125 C-3.305625 7.6525 -3.98625 6.9925 -4.6875 6.3125 C-3.63025274 0.42212241 -3.63025274 0.42212241 0 0 Z " fill="#1A1A1A" transform="translate(68.6875,178.6875)"/>
<path d="M0 0 C0.33 0 0.66 0 1 0 C2.74804747 20.51323173 2.74804747 20.51323173 -1 29 C-2.55475686 32.59647529 -3.47320479 35.94828554 -4.125 39.8125 C-4.29257813 40.78832031 -4.46015625 41.76414063 -4.6328125 42.76953125 C-4.75398437 43.50558594 -4.87515625 44.24164063 -5 45 C-5.66 44.67 -6.32 44.34 -7 44 C-6.67 41.36 -6.34 38.72 -6 36 C-6.99 36.495 -6.99 36.495 -8 37 C-7.5625 35.6875 -7.125 34.375 -6.6875 33.0625 C-6.41550781 32.24394531 -6.14351562 31.42539063 -5.86328125 30.58203125 C-5.30446658 28.9106444 -4.73974119 27.24121728 -4.16796875 25.57421875 C-3.90628906 24.80722656 -3.64460937 24.04023438 -3.375 23.25 C-3.13523438 22.55390625 -2.89546875 21.8578125 -2.6484375 21.140625 C-1.19869341 16.35472282 -0.76343178 11.66960007 -0.4375 6.6875 C-0.35371094 5.43324219 -0.26992187 4.17898437 -0.18359375 2.88671875 C-0.12300781 1.93410156 -0.06242188 0.98148437 0 0 Z " fill="#D2D2D2" transform="translate(186,114)"/>
<path d="M0 0 C-0.99 0.66 -1.98 1.32 -3 2 C-2.01 2.99 -1.02 3.98 0 5 C-0.33 5.66 -0.66 6.32 -1 7 C-1.61875 6.67 -2.2375 6.34 -2.875 6 C-4.91018344 4.85806765 -4.91018344 4.85806765 -7 5 C-8.23615622 10.09914442 -8.67479795 14.97560615 -7 20 C-3.37114676 20.15149298 -3.37114676 20.15149298 0 19 C-0.33 19.99 -0.66 20.98 -1 22 C-4.30096158 22.8252404 -6.8033 23.37001429 -10 22 C-11.81751049 16.54746853 -12.00302799 10.2926354 -9.6875 5 C-9.130625 4.34 -8.57375 3.68 -8 3 C-7.54625 2.401875 -7.0925 1.80375 -6.625 1.1875 C-4.38401604 -0.45014212 -2.70391348 -0.21923623 0 0 Z " fill="#5D5D5D" transform="translate(76,95)"/>
<path d="M0 0 C0.66 0.33 1.32 0.66 2 1 C-3.9236496 7.85369121 -10.14630879 14.0763504 -17 20 C-17 16.44044831 -16.10658705 15.72100827 -14 13 C-14 12.34 -14 11.68 -14 11 C-12.33720673 9.9935725 -10.67016516 8.99414593 -9 8 C-8.34 7.01 -7.68 6.02 -7 5 C-6.01 5 -5.02 5 -4 5 C-3.896875 4.360625 -3.79375 3.72125 -3.6875 3.0625 C-3.460625 2.381875 -3.23375 1.70125 -3 1 C-2.01 0.67 -1.02 0.34 0 0 Z " fill="#B2B2B2" transform="translate(48,28)"/>
<path d="M0 0 C0 0.33 0 0.66 0 1 C-0.84820312 1.03738281 -1.69640625 1.07476562 -2.5703125 1.11328125 C-10.44487278 1.55460276 -17.49508145 2.60972083 -25.13671875 4.57421875 C-28 5 -28 5 -31 3 C-20.26923644 -1.41743447 -11.33921722 -1.17082826 0 0 Z " fill="#C7C7C7" transform="translate(152,81)"/>
<path d="M0 0 C0 0.99 0 1.98 0 3 C-4.11536133 7.11536133 -7.35238619 8.75752496 -13 10 C-13 9.34 -13 8.68 -13 8 C-17.95 8 -22.9 8 -28 8 C-28 7.67 -28 7.34 -28 7 C-26.31583984 6.96132812 -26.31583984 6.96132812 -24.59765625 6.921875 C-11.19892374 6.66753835 -11.19892374 6.66753835 0 0 Z " fill="#434343" transform="translate(161,193)"/>
<path d="M0 0 C0.33 0.99 0.66 1.98 1 3 C-4.71195282 8.82651921 -10.20136464 11.69194799 -18 14 C-18.33 13.34 -18.66 12.68 -19 12 C-19.66 11.67 -20.32 11.34 -21 11 C-20.13117188 10.75765625 -19.26234375 10.5153125 -18.3671875 10.265625 C-7.69591515 7.40326636 -7.69591515 7.40326636 0 0 Z " fill="#212121" transform="translate(179,153)"/>
<path d="M0 0 C3.18245697 0.51329951 6.0987092 1.36172697 9.125 2.4375 C14.31575448 4.22318957 19.58959372 5.14040274 25 6 C21.02162065 8.20354201 18.32655858 8.20990488 14 7 C2.95555556 2.95555556 2.95555556 2.95555556 0 0 Z " fill="#3F3F3F" transform="translate(104,193)"/>
<path d="M0 0 C1.22589844 -0.00515625 2.45179688 -0.0103125 3.71484375 -0.015625 C6.79991052 0.22916443 8.48596294 0.62271344 11.0625 2.25 C10.7325 2.91 10.4025 3.57 10.0625 4.25 C3.4625 3.59 -3.1375 2.93 -9.9375 2.25 C-6.26994001 -0.19503999 -4.36271863 -0.01831152 0 0 Z " fill="#D9D9D9" transform="translate(149.9375,78.75)"/>
<path d="M0 0 C6.20988129 0.44356295 10.60540561 1.91532502 16 5 C15.01 5.99 14.02 6.98 13 8 C12.31292969 7.65066406 11.62585938 7.30132812 10.91796875 6.94140625 C10.01691406 6.48636719 9.11585938 6.03132813 8.1875 5.5625 C7.29417969 5.11003906 6.40085938 4.65757813 5.48046875 4.19140625 C2.96000522 2.9168395 2.96000522 2.9168395 0 2 C0 1.34 0 0.68 0 0 Z " fill="#E6E6E6" transform="translate(160,81)"/>
<path d="M0 0 C0.66 0.33 1.32 0.66 2 1 C-0.57784846 3.64752004 -2.91648098 5.94432065 -6 8 C-6.33 8.99 -6.66 9.98 -7 11 C-8.32 11 -9.64 11 -11 11 C-11 11.66 -11 12.32 -11 13 C-13.31 13.66 -15.62 14.32 -18 15 C-14.43151469 11.13414091 -10.03271512 8.25934935 -5.8125 5.15625 C-3.68204834 3.52290373 -1.81249805 1.96353955 0 0 Z " fill="#868686" transform="translate(209,221)"/>
<path d="M0 0 C0.33 0.66 0.66 1.32 1 2 C0.29296875 3.83984375 0.29296875 3.83984375 -0.8125 5.9375 C-1.34810547 6.97197266 -1.34810547 6.97197266 -1.89453125 8.02734375 C-2.84989011 9.73213606 -3.91598646 11.3739797 -5 13 C-5.99 13 -6.98 13 -8 13 C-6.47549821 7.19945661 -5.34673609 3.32364676 0 0 Z " fill="#E8E8E8" transform="translate(102,98)"/>
<path d="M0 0 C4.21775732 1.35525536 8.29421322 2.90200114 12.375 4.625 C13.96441406 5.29402344 13.96441406 5.29402344 15.5859375 5.9765625 C16.38257812 6.31429687 17.17921875 6.65203125 18 7 C13.49628572 8.4650113 10.41994594 6.86369593 6.25 5.0625 C5.55261719 4.77181641 4.85523437 4.48113281 4.13671875 4.18164062 C2.42024305 3.46448297 0.70952768 2.73356598 -1 2 C-0.67 1.34 -0.34 0.68 0 0 Z " fill="#C3C3C3" transform="translate(84,171)"/>
<path d="M0 0 C0.33 0 0.66 0 1 0 C1 1.98 1 3.96 1 6 C2.65 6 4.3 6 6 6 C5.38125 6.2475 4.7625 6.495 4.125 6.75 C1.64931313 8.20628639 1.04874998 9.37812506 0 12 C-0.33 10.68 -0.66 9.36 -1 8 C-3.31 7.67 -5.62 7.34 -8 7 C-8 6.67 -8 6.34 -8 6 C-4.535 5.505 -4.535 5.505 -1 5 C-0.67 3.35 -0.34 1.7 0 0 Z " fill="#D3D3D3" transform="translate(128,106)"/>
<path d="M0 0 C1.47668858 0.0133035 2.95331108 0.03716415 4.4296875 0.0703125 C5.18378906 0.07933594 5.93789063 0.08835938 6.71484375 0.09765625 C8.57826004 0.1212438 10.44151343 0.15711531 12.3046875 0.1953125 C12.3046875 0.5253125 12.3046875 0.8553125 12.3046875 1.1953125 C10.3246875 1.1953125 8.3446875 1.1953125 6.3046875 1.1953125 C6.3046875 1.8553125 6.3046875 2.5153125 6.3046875 3.1953125 C2.3446875 2.8653125 -1.6153125 2.5353125 -5.6953125 2.1953125 C-3.6953125 0.1953125 -3.6953125 0.1953125 0 0 Z " fill="#1D1D1D" transform="translate(38.6953125,182.8046875)"/>
<path d="M0 0 C2 2 2 2 2.3125 5.25 C1.98188343 9.21739888 0.9941069 11.59340071 -1 15 C-1.66 14.34 -2.32 13.68 -3 13 C-2.34 12.01 -1.68 11.02 -1 10 C-0.54398739 7.49103314 -0.54398739 7.49103314 -0.375 4.8125 C-0.30023438 3.91144531 -0.22546875 3.01039063 -0.1484375 2.08203125 C-0.09945312 1.39496094 -0.05046875 0.70789063 0 0 Z " fill="#454545" transform="translate(75,126)"/>
<path d="M0 0 C0.78375 0.04125 1.5675 0.0825 2.375 0.125 C1.385 0.785 0.395 1.445 -0.625 2.125 C0.365 3.115 1.355 4.105 2.375 5.125 C2.045 5.785 1.715 6.445 1.375 7.125 C0.50875 6.5990625 0.50875 6.5990625 -0.375 6.0625 C-2.98301776 4.97582593 -4.01917629 5.19434867 -6.625 6.125 C-3.85227273 0.18344156 -3.85227273 0.18344156 0 0 Z " fill="#4F4F4F" transform="translate(73.625,94.875)"/>
<path d="M0 0 C4.13621084 3.3810038 7.81316569 6.66590534 11 11 C10.01 11.495 10.01 11.495 9 12 C8.34 11.67 7.68 11.34 7 11 C7 10.01 7 9.02 7 8 C6.34 8 5.68 8 5 8 C0 2.52380952 0 2.52380952 0 0 Z " fill="#898989" transform="translate(29,206)"/>
<path d="M0 0 C-7.3697851 4.46015566 -7.3697851 4.46015566 -12 3.75 C-12.99 3.5025 -13.98 3.255 -15 3 C-15 2.67 -15 2.34 -15 2 C-12.87707704 1.47076428 -10.75157949 0.95184623 -8.625 0.4375 C-7.44164063 0.14746094 -6.25828125 -0.14257812 -5.0390625 -0.44140625 C-2 -1 -2 -1 0 0 Z " fill="#4C4C4C" transform="translate(108,228)"/>
<path d="M0 0 C-2.35735884 2.72957339 -4.58133526 3.88893396 -8 5 C-8.99 5 -9.98 5 -11 5 C-11 4.34 -11 3.68 -11 3 C-7.14243493 0.84694043 -4.44870215 -0.39253254 0 0 Z " fill="#DBDBDB" transform="translate(124,85)"/>
<path d="M0 0 C2.94586829 4.41880243 3.0985616 6.67767339 3 12 C0.82145293 8.7321794 -0.49760034 5.61941735 -2 2 C-1.34 1.34 -0.68 0.68 0 0 Z " fill="#D3D3D3" transform="translate(187,84)"/>
<path d="M0 0 C0.56203125 0.36867187 1.1240625 0.73734375 1.703125 1.1171875 C0.2913467 1.65112929 -1.12657744 2.16883854 -2.546875 2.6796875 C-3.33578125 2.96972656 -4.1246875 3.25976562 -4.9375 3.55859375 C-7.48790952 4.16241587 -8.85009729 3.9645807 -11.296875 3.1171875 C-9.88995893 2.38967962 -8.47081478 1.68578397 -7.046875 0.9921875 C-6.25796875 0.59773437 -5.4690625 0.20328125 -4.65625 -0.203125 C-2.296875 -0.8828125 -2.296875 -0.8828125 0 0 Z " fill="#C8C8C8" transform="translate(104.296875,230.8828125)"/>
<path d="M0 0 C0.66 0.33 1.32 0.66 2 1 C1.67 1.33 1.34 1.66 1 2 C3.97 2.495 3.97 2.495 7 3 C7 3.33 7 3.66 7 4 C0.565 4.495 0.565 4.495 -6 5 C-3 2 -3 2 0 0 Z " fill="#CCCCCC" transform="translate(42,179)"/>
<path d="M0 0 C2.76223278 2.76223278 2.57856291 5.20706617 3 9 C2.34 9 1.68 9 1 9 C0.67 9.99 0.34 10.98 0 12 C-0.76173392 7.6835078 -1.16063604 4.25566547 0 0 Z " fill="#E0E0E0" transform="translate(185,98)"/>
<path d="M0 0 C3.81377846 1.49827011 5.57365545 3.76487393 8 7 C8.66 7.66 9.32 8.32 10 9 C7 9 7 9 5.17578125 7.5390625 C4.56089844 6.90742187 3.94601563 6.27578125 3.3125 5.625 C2.68988281 4.99851562 2.06726563 4.37203125 1.42578125 3.7265625 C0 2 0 2 0 0 Z " fill="#8E8E8E" transform="translate(215,38)"/>
<path d="M0 0 C0.99 0.33 1.98 0.66 3 1 C0.36 3.64 -2.28 6.28 -5 9 C-5.66 8.67 -6.32 8.34 -7 8 C-7 7.34 -7 6.68 -7 6 C-5.33720673 4.9935725 -3.67016516 3.99414593 -2 3 C-1.34 2.01 -0.68 1.02 0 0 Z " fill="#848484" transform="translate(41,33)"/>
<path d="M0 0 C2.1640625 0.0234375 2.1640625 0.0234375 4.625 0.375 C5.85089844 0.54128906 5.85089844 0.54128906 7.1015625 0.7109375 C7.72804688 0.80632812 8.35453125 0.90171875 9 1 C5.01647791 3.30903272 2.49885947 2.86516528 -2 2 C-1.34 1.34 -0.68 0.68 0 0 Z " fill="#2F2F2F" transform="translate(120,198)"/>
<path d="M0 0 C0.66 0.33 1.32 0.66 2 1 C1.34 3.31 0.68 5.62 0 8 C-1.32 7.67 -2.64 7.34 -4 7 C-3.34 6.34 -2.68 5.68 -2 5 C-1.29289322 3.35008418 -0.62056011 1.68437744 0 0 Z " fill="#B2B2B2" transform="translate(163,190)"/>
<path d="M0 0 C2.64 0 5.28 0 8 0 C8.33 0.99 8.66 1.98 9 3 C2.84765625 2.4140625 2.84765625 2.4140625 1 2 C0.67 1.34 0.34 0.68 0 0 Z " fill="#191919" transform="translate(125,200)"/>
<path d="M0 0 C0.33 0.99 0.66 1.98 1 3 C-1.31 4.98 -3.62 6.96 -6 9 C-6.66 8.34 -7.32 7.68 -8 7 C-7.05125 6.401875 -6.1025 5.80375 -5.125 5.1875 C-1.86035803 3.18437474 -1.86035803 3.18437474 0 0 Z " fill="#383838" transform="translate(179,153)"/>
<path d="M0 0 C0.33 0.66 0.66 1.32 1 2 C1.66 2 2.32 2 3 2 C2.67 3.65 2.34 5.3 2 7 C1.01 7 0.02 7 -1 7 C-1.33 6.34 -1.66 5.68 -2 5 C-1.0625 2.375 -1.0625 2.375 0 0 Z " fill="#D4D4D4" transform="translate(96,104)"/>
<path d="M0 0 C0.94875 0.350625 1.8975 0.70125 2.875 1.0625 C1.885 2.0525 0.895 3.0425 -0.125 4.0625 C-1.775 2.7425 -3.425 1.4225 -5.125 0.0625 C-3.125 -0.9375 -3.125 -0.9375 0 0 Z " fill="#DEDEDE" transform="translate(173.125,84.9375)"/>
<path d="M0 0 C3.7952131 1.49097658 5.61042731 3.75700849 8 7 C5 7 5 7 2.3125 4.625 C0 2 0 2 0 0 Z " fill="#828282" transform="translate(40,218)"/>
<path d="M0 0 C0.625 1.875 0.625 1.875 1 4 C-1 6 -1 6 -4 7 C-2.92598892 4.08482708 -2.22189824 2.22189824 0 0 Z " fill="#E5E5E5" transform="translate(184,139)"/>
<path d="M0 0 C2 1 2 1 2 1 Z " fill="#CCCCCC" transform="translate(30,43)"/>
<path d="" fill="#DFDFDF" transform="translate(0,0)"/>
</svg>
